<svg width="333" height="332" viewBox="0 0 333 332" fill="none" xmlns="http://www.w3.org/2000/svg">
<g clip-path="url(#clip0_1585_749)">
<mask id="mask0_1585_749" style="mask-type:luminance" maskUnits="userSpaceOnUse" x="0" y="0" width="333" height="332">
<path d="M333 0H0V332H333V0Z" fill="white"/>
</mask>
<g mask="url(#mask0_1585_749)">
<path d="M70.7246 244.362C28.4096 268.19 52.2375 326.938 66.2055 329.403C76.9638 331.301 112.331 330.213 129.472 329.403L262.169 231.216L184.522 220.534C160.695 220.534 104.577 225.3 70.7246 244.362Z" fill="white"/>
<path d="M129.472 329.403C128.86 329.433 130.136 329.371 129.472 329.403ZM129.472 329.403C112.331 330.213 76.9638 331.301 66.2055 329.403C52.2375 326.938 28.4096 268.19 70.7246 244.362C104.577 225.3 160.695 220.534 184.522 220.534L262.169 231.216L129.472 329.403Z" stroke="black" stroke-width="1.62158"/>
<path d="M82.2267 252.427C111.477 246.84 135.223 264.021 143.44 273.31C144.812 271.39 146.296 269.493 147.898 267.627C145.373 256.535 96.1947 244.621 82.2267 252.427Z" fill="#000001"/>
<path d="M126.507 330.619C127.545 330.573 128.536 330.528 129.472 330.484L237.855 250.288C233.08 248.673 220.774 243.705 209.747 236.75C134.939 245.615 123.083 303.023 126.507 330.619Z" fill="#0E1729"/>
<path d="M250.254 330.483C304.071 313.229 262.168 235.172 262.168 232.296L242.037 229.527C139.495 235.857 124.267 299.469 129.471 330.483H195.203H250.254Z" fill="white" stroke="black" stroke-width="1.62158"/>
<path d="M184.522 300.905C191.095 307.478 194.382 323.363 195.204 330.484H201.366C199.723 322.404 194.053 305.177 184.522 300.905Z" fill="#000001"/>
<path d="M351 330H0V332H351V330Z" fill="black"/>
<path d="M192.861 81.3777C190.697 78.6237 185.071 70.1648 179.877 58.3617C181.058 56.9846 183.3 52.8139 182.828 47.1485C176.691 46.2042 172.971 32.9848 171.879 26.4931C180.029 21.972 173.084 9.91153 175.746 9.37883C178.697 8.78838 186.369 11.7392 186.369 19.4112C186.369 27.0832 199.514 23.4618 202.893 21.7718C211.155 17.6407 208.205 27.674 204.664 37.1161C202.775 40.421 209.385 46.7553 212.926 49.5094C213.87 58.9518 205.451 73.509 201.123 79.6073C201.713 97.3119 201.831 132.721 197.582 132.721C194.749 127.056 193.254 96.1316 192.861 81.3777Z" fill="white" stroke="black" stroke-width="1.08105"/>
<path d="M187.548 27.6699C186.565 28.6535 185.188 31.4469 187.548 34.7518" stroke="#241715" stroke-width="0.540525"/>
<path d="M192.269 36.5264C191.876 38.6903 190.144 41.9558 186.367 37.7067" stroke="#241715" stroke-width="0.540525"/>
<path d="M205.253 29.4421C206.039 27.2782 207.023 23.0684 204.662 23.5405" stroke="#241715" stroke-width="0.540525"/>
<path d="M182.198 53.6388C182.718 51.837 183.035 49.6365 182.827 47.1474C186.098 48.9181 191.679 49.5083 203.482 41.2456C203.953 47.3832 189.489 52.0651 182.198 53.6388Z" fill="black"/>
<path d="M212.335 9.37822C216.466 19.4109 207.024 32.9844 204.663 37.1155C208.204 27.6733 210.564 17.6401 202.893 21.7712C199.565 23.5628 186.368 27.0826 186.368 19.4106C186.368 11.7385 178.696 8.78777 175.746 9.37822C173.083 9.91092 180.028 21.9714 171.878 26.4924C170.995 26.9826 169.934 27.3841 168.664 27.6727C171.614 23.5416 170.434 24.1318 168.074 14.0992C165.713 4.06653 176.336 1.70621 186.368 0.525906C196.401 -0.654403 208.204 -0.654405 212.335 9.37822Z" fill="black"/>
<path d="M267.809 73.1155C260.255 63.2009 228.072 53.2469 212.925 49.5093C213.869 58.9518 205.449 73.5089 201.122 79.6072C201.712 97.3118 201.83 132.721 197.581 132.721C194.748 127.056 193.253 96.1315 192.86 81.3776C190.696 78.6236 185.07 70.1647 179.876 58.3616C178.696 61.9025 146.828 86.0989 141.516 93.7709C136.205 101.443 134.434 175.212 134.434 181.704C134.434 188.196 132.074 232.457 151.549 232.457C167.129 232.457 230.826 234.621 263.088 235.408C267.809 185.442 275.363 83.0301 267.809 73.1155Z" fill="black"/>
<path d="M134.436 181.7C166.698 175.012 231.221 167.655 231.221 191.733C231.221 215.811 201.32 229.419 186.37 233.213M231.221 54.7617C227.287 56.5507 218.946 64.9681 217.058 84.3251C214.697 108.521 207.12 116.783 200.981 116.783M194.957 117.964C189.93 120.718 178.934 122.803 175.157 109.111C170.435 91.9971 160.585 82.5547 149.576 85.5054M248.926 61.3095C247.746 60.81 228.861 73.7023 227.09 103.21C225.32 132.718 206.435 188.192 167.485 158.684C152.73 143.93 138.513 134.685 136.126 135.668M179.878 233.035C185.189 227.923 194.396 216.047 188.73 209.438C183.065 202.828 152.076 211.798 137.289 217.11M270.643 88.4562C257.896 96.3249 234.408 121.387 242.434 158.684C249.516 179.93 262.458 177.766 268.043 174.028M265.908 202.946C258.28 203.047 243.733 209.591 246.565 234.965" stroke="white" stroke-width="0.540525"/>
<path d="M197.935 231.486L195.035 209.922C188.44 211.118 174.704 212.277 164.093 213.283C152.985 214.336 150.186 220.168 157.642 222.03C153.742 221.544 149.376 226.921 155.599 229.328C151.034 230.95 160.063 232.759 164.489 232.768C161.956 233.151 157.564 233.857 158.161 236.541C158.758 239.225 184.926 234.29 197.935 231.486Z" fill="white"/>
<path d="M197.935 231.487L195.035 209.922C193.501 210.2 191.58 210.477 189.402 210.75L182.804 234.49C188.348 233.482 193.805 232.377 197.935 231.487Z" fill="black"/>
<path d="M164.67 232.927L173.846 230.344" stroke="black" stroke-width="0.540525"/>
<path d="M157.701 227.164L173.789 225.211" stroke="black" stroke-width="0.540525"/>
<path d="M157.642 222.03L174.074 219.188" stroke="black" stroke-width="0.540525"/>
<path d="M285.318 212.549C286.746 189.948 288.305 76.049 262.81 69.9091C233.341 62.812 233.727 171.434 246.521 196.214L186.344 202.332L191.991 239.877C221.247 237.834 282.955 249.949 285.318 212.549Z" fill="black"/>
<path d="M262.81 69.9086C233.34 62.8116 233.727 171.434 246.52 196.214L186.344 202.331" stroke="white" stroke-width="0.540525"/>
<path d="M275.085 86.2773C265.979 87.2675 245.742 92.5248 240.778 104.848M280.751 106.107C272.545 109.696 253.332 121.78 250.909 134.184C248.485 146.588 274.152 142.4 284.528 140.1M285.158 161.818C276.533 165.845 246.298 168.518 239.519 159.3M285.472 200.533C276.639 195.173 251.209 184.472 244.555 188.573M220.633 198.645C216.856 206.828 222.772 236.92 239.519 240.192" stroke="white" stroke-width="0.540525"/>
<path d="M27.2003 155.671H128.547C130.323 155.671 131.918 156.757 132.57 158.409L162.669 234.707C163.321 236.359 164.916 237.444 166.692 237.444H245.522C246.972 237.444 248.148 238.62 248.148 240.07C248.148 241.52 246.972 242.696 245.522 242.696H58.2805C56.5076 242.696 54.9144 241.614 54.2608 239.966L23.1806 161.59C22.055 158.751 24.1466 155.671 27.2003 155.671Z" fill="white" stroke="black" stroke-width="1.62158"/>
<path d="M132.108 157.159L165.448 237.444H163.196C161.45 237.444 159.875 236.394 159.204 234.783L127.651 159.013C126.989 157.423 128.157 155.671 129.879 155.671C130.854 155.671 131.734 156.258 132.108 157.159Z" fill="black"/>
<path d="M54.2608 239.966L23.1806 161.59C22.055 158.751 24.1466 155.671 27.2003 155.671H35.0148C35.658 155.671 36.2913 155.815 36.8755 156.084C39.6416 157.358 44.2629 159.361 51.9373 163.239C77.6122 176.211 80.8554 203.778 75.4501 217.291C71.068 228.246 128.989 239.57 151.746 242.696H58.2805C56.5076 242.696 54.9144 241.614 54.2608 239.966Z" fill="black"/>
<path d="M91.8451 198.846C88.5113 200.096 84.643 198.002 83.2051 194.168C81.7671 190.334 83.3041 186.213 86.6379 184.962C89.9718 183.712 93.8401 185.806 95.278 189.64C96.7159 193.474 95.179 197.596 91.8451 198.846Z" fill="black"/>
</g>
</g>
<defs>
<clipPath id="clip0_1585_749">
<rect width="333" height="332" fill="white"/>
</clipPath>
</defs>
</svg>
